<svg xmlns="http://www.w3.org/2000/svg" xmlns:xlink="http://www.w3.org/1999/xlink" id="Layer_1" x="0" y="0" enable-background="new 0 0 64 64" version="1.1" viewBox="0 0 64 64" xml:space="preserve"><style type="text/css">.st0{fill:#4e342e}.st1,.st2{fill:#fcb316;stroke:#fcb316;stroke-miterlimit:10}.st2{stroke:#fbb316;stroke-linecap:round;stroke-linejoin:round}.st3{fill:#ffcb29}.st4{stroke:#ed6d23;stroke-width:1.5}.st4,.st5,.st6{fill:none;stroke-miterlimit:10}.st5{stroke:#4e342e;stroke-width:.75}.st6{stroke:#fcb316}</style><path d="M60,64H4c-2.2,0-4-1.8-4-4V4c0-2.2,1.8-4,4-4h56c2.2,0,4,1.8,4,4v56C64,62.2,62.2,64,60,64z" class="st0"/><g><rect width="48" height="32" x="10" y="18" class="st1"/><g><polyline points="6 46 10 50 10 46" class="st2"/><polyline points="58 18 54 14 54 18" class="st2"/></g><rect width="48" height="32" x="6" y="14" class="st3"/><line x1="6" x2="54" y1="22" y2="22" class="st4"/><g><line x1="6" x2="54" y1="30" y2="30" class="st5"/><line x1="6" x2="54" y1="38" y2="38" class="st5"/><line x1="6" x2="54" y1="26" y2="26" class="st5"/><line x1="6" x2="54" y1="34" y2="34" class="st5"/><line x1="6" x2="54" y1="42" y2="42" class="st5"/></g><rect width="48" height="32" x="6" y="14" class="st6"/></g></svg>