<?xml version="1.0" encoding="utf-8"?>
<!-- Generator: Adobe Illustrator 23.1.0, SVG Export Plug-In . SVG Version: 6.00 Build 0)  -->
<svg version="1.1" id="Layer_1" xmlns="http://www.w3.org/2000/svg" xmlns:xlink="http://www.w3.org/1999/xlink" x="0px" y="0px"
	 viewBox="0 0 64 64" style="enable-background:new 0 0 64 64;" xml:space="preserve">
<style type="text/css">
	.st0{fill:#4E342E;}
	.st1{fill:#FCB316;stroke:#FCB316;stroke-miterlimit:10;}
	.st2{fill:#FCB316;stroke:#FBB316;stroke-linecap:round;stroke-linejoin:round;stroke-miterlimit:10;}
	.st3{fill:#FFCB29;}
	.st4{fill:none;stroke:#ED6D23;stroke-width:1.5;stroke-miterlimit:10;}
	.st5{fill:none;stroke:#4E342E;stroke-width:0.75;stroke-miterlimit:10;}
	.st6{fill:none;stroke:#FCB316;stroke-miterlimit:10;}
</style>
<path class="st0" d="M60,64H4c-2.2,0-4-1.8-4-4V4c0-2.2,1.8-4,4-4h56c2.2,0,4,1.8,4,4v56C64,62.2,62.2,64,60,64z"/>
<g>
	<rect x="10" y="18" class="st1" width="48" height="32"/>
	<g>
		<polyline class="st2" points="6,46 10,50 10,46 		"/>
		<polyline class="st2" points="58,18 54,14 54,18 		"/>
	</g>
	<rect x="6" y="14" class="st3" width="48" height="32"/>
	<line class="st4" x1="6" y1="22" x2="54" y2="22"/>
	<g>
		<line class="st5" x1="6" y1="30" x2="54" y2="30"/>
		<line class="st5" x1="6" y1="38" x2="54" y2="38"/>
		<line class="st5" x1="6" y1="26" x2="54" y2="26"/>
		<line class="st5" x1="6" y1="34" x2="54" y2="34"/>
		<line class="st5" x1="6" y1="42" x2="54" y2="42"/>
	</g>
	<rect x="6" y="14" class="st6" width="48" height="32"/>
</g>
</svg>
